<?xml version="1.0" encoding="utf-8"?>
<!-- Generator: Adobe Illustrator 23.0.1, SVG Export Plug-In . SVG Version: 6.00 Build 0)  -->
<svg version="1.1" id="Layer_1" xmlns="http://www.w3.org/2000/svg" xmlns:xlink="http://www.w3.org/1999/xlink" x="0px" y="0px"
	 viewBox="0 0 1920 1080" style="enable-background:new 0 0 1920 1080;" xml:space="preserve">
<style type="text/css">
	.st0{fill:#1D00AD;}
</style>
<g>
	<path class="st0" d="M551.53,568.32v-86.99c0-6,2.09-11.1,6.29-15.29c4.3-4.3,9.46-6.46,15.46-6.46h43.5v43.5
		c0,6.12-2.15,11.27-6.46,15.46c-4.31,4.19-9.4,6.29-15.29,6.29h-21.75v43.5H551.53z M584.15,503.08c2.94,0,5.49-1.02,7.65-3.06
		c2.15-2.15,3.23-4.76,3.23-7.82c0-2.94-1.08-5.49-3.23-7.65c-2.15-2.15-4.7-3.23-7.65-3.23h-10.87v21.75H584.15z M595.02,524.83
		l21.75,10.87v10.87c0,6.12-2.15,11.27-6.46,15.46c-4.31,4.19-9.4,6.29-15.29,6.29V524.83z"/>
	<path class="st0" d="M642.58,568.32v-86.99c0-6,2.09-11.1,6.29-15.29c4.3-4.3,9.46-6.46,15.46-6.46v108.74H642.58z"/>
	<path class="st0" d="M690.13,503.08v-21.75c0-6,2.09-11.1,6.29-15.29c4.3-4.3,9.46-6.46,15.46-6.46v43.5l10.87,21.75l10.87-21.75
		v-43.5h21.75v43.5l-32.62,65.24L690.13,503.08z"/>
	<path class="st0" d="M781.18,568.32v-86.99c0-6,2.09-11.1,6.29-15.29c4.3-4.3,9.46-6.46,15.46-6.46h43.5v21.75h-43.5v21.75h21.75
		v21.75h-21.75v21.75h43.5c0,6.12-2.15,11.27-6.46,15.46c-4.31,4.19-9.4,6.29-15.29,6.29H781.18z"/>
	<path class="st0" d="M872.23,568.32v-86.99c0-6,2.09-11.1,6.29-15.29c4.3-4.3,9.46-6.46,15.46-6.46h43.5v43.5
		c0,6.12-2.15,11.27-6.46,15.46c-4.31,4.19-9.4,6.29-15.29,6.29h-21.75v43.5H872.23z M904.85,503.08c2.94,0,5.49-1.02,7.65-3.06
		c2.15-2.15,3.23-4.76,3.23-7.82c0-2.94-1.08-5.49-3.23-7.65c-2.15-2.15-4.7-3.23-7.65-3.23h-10.87v21.75H904.85z M915.72,524.83
		l21.75,10.87v10.87c0,6.12-2.15,11.27-6.46,15.46c-4.31,4.19-9.4,6.29-15.29,6.29V524.83z"/>
	<path class="st0" d="M966.76,568.32v-86.99c0-6,2.09-11.1,6.29-15.29c4.3-4.3,9.46-6.46,15.46-6.46h43.5v86.99
		c0,6.12-2.15,11.27-6.46,15.46c-4.31,4.19-9.4,6.29-15.29,6.29H966.76z M999.38,546.58c2.94,0,5.49-1.02,7.65-3.06
		c2.15-2.15,3.23-4.76,3.23-7.82v-43.5c0-2.94-1.08-5.49-3.23-7.65c-2.15-2.15-4.7-3.23-7.65-3.23H988.5v65.24H999.38z"/>
	<path class="st0" d="M1057.8,568.32v-86.99c0-6,2.09-11.1,6.29-15.29c4.3-4.3,9.46-6.46,15.46-6.46h43.5v86.99
		c0,6.12-2.15,11.27-6.46,15.46c-4.31,4.19-9.4,6.29-15.29,6.29v-43.5h-21.75v43.5H1057.8z M1101.3,503.08v-10.87
		c0-2.94-1.08-5.49-3.23-7.65c-2.15-2.15-4.7-3.23-7.65-3.23c-3.06,0-5.67,1.08-7.82,3.23c-2.04,2.15-3.06,4.7-3.06,7.65v10.87
		H1101.3z"/>
	<path class="st0" d="M1148.85,568.32v-86.99c0-6,2.09-11.1,6.29-15.29c4.3-4.3,9.46-6.46,15.46-6.46l21.75,43.5v-43.5h21.75v86.99
		c0,6.12-2.15,11.27-6.46,15.46c-4.31,4.19-9.4,6.29-15.29,6.29v-21.75l-21.75-43.5v65.24H1148.85z"/>
	<path class="st0" d="M1239.9,568.32v-86.99c0-6,2.09-11.1,6.29-15.29c4.3-4.3,9.46-6.46,15.46-6.46h43.5v21.75h-32.62
		c-3.06,0-5.67,1.08-7.82,3.23c-2.04,2.15-3.06,4.7-3.06,7.65v43.5c0,3.06,1.02,5.67,3.06,7.82c2.15,2.04,4.76,3.06,7.82,3.06h32.62
		c0,6.12-2.15,11.27-6.46,15.46c-4.31,4.19-9.4,6.29-15.29,6.29H1239.9z"/>
	<path class="st0" d="M1330.95,568.32v-86.99c0-6,2.09-11.1,6.29-15.29c4.3-4.3,9.46-6.46,15.46-6.46h43.5v21.75h-43.5v21.75h21.75
		v21.75h-21.75v21.75h43.5c0,6.12-2.15,11.27-6.46,15.46c-4.31,4.19-9.4,6.29-15.29,6.29H1330.95z"/>
</g>
</svg>
