<?xml version="1.0" encoding="utf-8"?>
<!-- Generator: Adobe Illustrator 23.0.1, SVG Export Plug-In . SVG Version: 6.00 Build 0)  -->
<svg version="1.1" id="Layer_1" xmlns="http://www.w3.org/2000/svg" xmlns:xlink="http://www.w3.org/1999/xlink" x="0px" y="0px"
	 viewBox="0 0 250 250" style="enable-background:new 0 0 250 250;" xml:space="preserve">
<style type="text/css">
	.st0{fill:none;stroke:#FFFFFF;stroke-width:7;stroke-miterlimit:10;}
	.st1{fill:#FFFFFF;}
</style>
<path d="M222.1,244.2H8.5V149c0-11.1,9-20.1,20.1-20.1h214.4v94.4C243.1,234.9,233.7,244.2,222.1,244.2z"/>
<polyline class="st0" points="8.5,126.9 125.8,186.6 243.1,128.9 "/>
<g>
	<path d="M204.8,36.7l-90.3,18.3C107.2,56.6,102,63,102,70.5v106.4c-5.9-4.8-17.2-6.6-29.4-4.2c-16.7,3.3-28.8,13.5-27,22.7
		c1.8,9.2,16.9,14,33.6,10.6c16-3.2,29.1-12,28.5-20.9l0,0l1.6-108.5L185.1,60c6.4-1.4,12.4,3.4,12.4,10v95.2
		c-6-4.7-17.3-6.6-29.5-4.1c-16.9,3.4-29.1,13.6-27.2,22.9c1.8,9.3,17,14.1,33.9,10.7c15.5-3.1,28.1-10,28.4-18.7l0.2-0.5
		L204.8,36.7z"/>
	<path class="st1" d="M204.8,36.7l-1.6,138.7l-0.2,0.5c-0.3,8.6-12.8,15.6-28.4,18.7c-3.6,0.7-7.2,1.1-10.6,1.1
		c-12.2,0-21.9-4.5-23.3-11.8c-1.8-9.3,10.3-19.5,27.2-22.9c3.6-0.7,7.2-1.1,10.6-1.1c7.9,0,14.7,1.9,19,5.2V69.9
		c0-5.7-4.7-10.2-10.2-10.2c-0.7,0-1.5,0.1-2.2,0.2l-75.9,16.6l-1.6,108.5c0.6,8.9-12.5,17.7-28.5,20.9c-3.6,0.7-7.2,1.1-10.5,1.1
		c-12.1,0-21.7-4.5-23.1-11.7c-1.8-9.2,10.3-19.4,27-22.7c3.6-0.7,7.1-1.1,10.5-1.1c7.9,0,14.8,1.9,18.9,5.3V70.5
		c0-7.5,5.3-14,12.6-15.4L204.8,36.7 M209.9,30.6l-6.1,1.2l-90.3,18.3C104,52.1,97,60.7,97,70.5v98.2c-4.1-1.4-8.8-2.1-13.9-2.1
		c-3.7,0-7.6,0.4-11.4,1.2c-8.9,1.8-17,5.4-22.7,10.2c-6.6,5.5-9.5,12-8.2,18.3c1.9,9.5,12.9,15.7,28,15.7c3.8,0,7.6-0.4,11.5-1.2
		c16.7-3.3,33.2-13.3,32.5-25.9l1.5-104.4l72-15.8c0.4-0.1,0.8-0.1,1.1-0.1c2.9,0,5.2,2.3,5.2,5.2V157c-4.1-1.4-8.8-2.1-14-2.1
		c-3.8,0-7.6,0.4-11.5,1.2c-9,1.8-17.1,5.4-22.9,10.3c-6.6,5.5-9.5,12.1-8.3,18.5c1.9,9.6,13,15.8,28.2,15.8c3.8,0,7.7-0.4,11.6-1.2
		c19.3-3.8,31.2-12.1,32.3-22.3l0.3-0.6l0-1l1.6-138.7L209.9,30.6L209.9,30.6z"/>
</g>
</svg>
