<?xml version="1.0" encoding="utf-8"?>
<!-- Generator: Adobe Illustrator 23.0.1, SVG Export Plug-In . SVG Version: 6.00 Build 0)  -->
<svg version="1.1" id="Layer_1" xmlns="http://www.w3.org/2000/svg" xmlns:xlink="http://www.w3.org/1999/xlink" x="0px" y="0px"
	 viewBox="0 0 250 250" style="enable-background:new 0 0 250 250;" xml:space="preserve">
<style type="text/css">
	.st0{fill:#FFFFFF;}
</style>
<ellipse transform="matrix(0.9557 -0.2943 0.2943 0.9557 -31.7496 30.2351)" class="st0" cx="84.6" cy="120.6" rx="25.3" ry="15.3"/>
<ellipse transform="matrix(0.9557 -0.2943 0.2943 0.9557 -26.2996 52.8186)" class="st0" cx="162.4" cy="113.8" rx="25.3" ry="15.3"/>
<path class="st0" d="M98.8,23.3l-0.2,91.9l10.3,0l0.2-87.9l54.6-8.9c6.8-1.1,12.9,4.1,12.9,11l-0.2,79.6l10.3,0L187,0l-78.9,12.4
	C102.8,13.3,98.8,17.9,98.8,23.3z"/>
<g>
	<path class="st0" d="M128.7,197.7l84.7-43.3h-163c-1.7,0-3.3,0.3-4.8,0.9L128.7,197.7z"/>
	<path class="st0" d="M135.1,208.8c-4.1,2.1-8.8,2.1-12.9,0L38.4,166c-2.1,2.9-3.4,6.6-3.4,10.7v73.5h171.7
		c8.6,0,15.6-7.7,15.6-17.3v-68.7L135.1,208.8z"/>
</g>
</svg>
