<?xml version="1.0" encoding="utf-8"?>
<!-- Generator: Adobe Illustrator 23.0.1, SVG Export Plug-In . SVG Version: 6.00 Build 0)  -->
<svg version="1.1" id="Layer_1" xmlns="http://www.w3.org/2000/svg" xmlns:xlink="http://www.w3.org/1999/xlink" x="0px" y="0px"
	 viewBox="0 0 250 501.7" style="enable-background:new 0 0 250 501.7;" xml:space="preserve">
<style type="text/css">
	.st0{fill:#FFFFFF;}
</style>
<path class="st0" d="M101.2,385.4V256.1l0,0H132c13.4,0,24.3,9,24.3,20.1l0,0v109.2l0,0H101.2L101.2,385.4z"/>
<path class="st0" d="M121.3,443.6L191.2,343H92.7c-13.2,0-23.9,8.9-23.9,19.8c0,3.5,1.1,6.9,3.2,9.9L121.3,443.6z"/>
<path class="st0" d="M250,501.7H20.5C9.2,501.7,0,492.5,0,481.2v-25.6h229.3c11.4,0,20.7,9.3,20.7,20.7V501.7z"/>
<path class="st0" d="M189.1,185.5L56.9,53.2c-7.9-7.9-7.9-20.7,0-28.6l14-14l131.7,131.7c8.2,8.2,8.2,21.5,0,29.8L189.1,185.5z"/>
<path class="st0" d="M70.9,185.5l-14.4-14.4c-7.7-7.7-7.7-20.1,0-27.8L189.1,10.6l13.8,13.8c8,8,8,21,0,29L70.9,185.5z"/>
</svg>
