<svg id="Layer_1" data-name="Layer 1" xmlns="http://www.w3.org/2000/svg" viewBox="0 0 250 250">
  <defs>
    <style>
      .cls-1 {
        fill: #fff;
      }
    </style>
  </defs>
  <title>electronic</title>
  <path class="cls-1" d="M31.29,0A30.9,30.9,0,0,0,.39,30.9V250H220a30.39,30.39,0,0,0,30.39-30.39V0ZM220.58,220.58H107.35a75.29,75.29,0,0,1-75.29-75.29V32.06H145.29a75.29,75.29,0,0,1,75.29,75.29Z" transform="translate(-0.39)"/>
  <path class="cls-1" d="M124.19,180.45h96a0,0,0,0,1,0,0v13.16a0,0,0,0,1,0,0h-107a0,0,0,0,1,0,0v-2.19A11,11,0,0,1,124.19,180.45Z"/>
  <g>
    <path class="cls-1" d="M113.61,198.61h-5v-7.19a16,16,0,0,1,16-16h65.51a80.4,80.4,0,1,0-28.3,23.16Zm12.71-88.74a16.45,16.45,0,1,1-16.45,16.45A16.45,16.45,0,0,1,126.32,109.87Z" transform="translate(-0.39)"/>
    <path class="cls-1" d="M124.58,180.45a11,11,0,0,0-11,11v2.19h56.91a80.81,80.81,0,0,0,15.41-13.16Z" transform="translate(-0.39)"/>
  </g>
  <rect class="cls-1" x="214.29" y="180.45" width="11.03" height="13.16"/>
</svg>
