<?xml version="1.0" encoding="utf-8"?>
<!-- Generator: Adobe Illustrator 23.0.1, SVG Export Plug-In . SVG Version: 6.00 Build 0)  -->
<svg version="1.1" id="Layer_1" xmlns="http://www.w3.org/2000/svg" xmlns:xlink="http://www.w3.org/1999/xlink" x="0px" y="0px"
	 viewBox="0 0 250 250" style="enable-background:new 0 0 250 250;" xml:space="preserve">
<style type="text/css">
	.st0{fill:#FFFFFF;}
</style>
<g>
	<path class="st0" d="M125,27c54,0,98,44,98,98s-44,98-98,98s-98-44-98-98S71,27,125,27 M125,2C57.1,2,2,57.1,2,125
		s55.1,123,123,123s123-55.1,123-123S192.9,2,125,2L125,2z"/>
</g>
<g>
	<path class="st0" d="M100.6,93.5c0-11.4,4-21.1,11.9-29c8.2-8.2,17.9-12.2,29.3-12.2v41.3L100.6,93.5L100.6,93.5z M100.6,197.2
		v-82.5h41.3v82.5H100.6z"/>
</g>
</svg>
