<?xml version="1.0" encoding="UTF-8" standalone="no"?>
<svg
   xmlns:dc="http://purl.org/dc/elements/1.1/"
   xmlns:cc="http://creativecommons.org/ns#"
   xmlns:rdf="http://www.w3.org/1999/02/22-rdf-syntax-ns#"
   xmlns:svg="http://www.w3.org/2000/svg"
   xmlns="http://www.w3.org/2000/svg"
   id="svg821"
   version="1.1"
   viewBox="0 0 66.145832 66.145835"
   height="250"
   width="250">
  <defs
     id="defs815" />
  <metadata
     id="metadata818">
    <rdf:RDF>
      <cc:Work
         rdf:about="">
        <dc:format>image/svg+xml</dc:format>
        <dc:type
           rdf:resource="http://purl.org/dc/dcmitype/StillImage" />
        <dc:title></dc:title>
      </cc:Work>
    </rdf:RDF>
  </metadata>
  <g
     transform="translate(0,-230.85415)"
     id="layer1">
    <path
       transform="matrix(0.26458333,0,0,0.26458333,0,230.85415)"
       id="path1366"
       d="M 124.86914 -0.2578125 A 91.001816 94.501852 0 0 0 33.867188 94.244141 A 91.001816 94.501852 0 0 0 33.904297 95.318359 L 33.904297 95.648438 L 58.521484 95.648438 L 58.521484 95.652344 L 191.32227 95.652344 L 191.32227 95.648438 L 215.87109 95.648438 L 215.87109 95.318359 L 215.82031 95.318359 A 91.001816 94.501852 0 0 0 215.87109 94.244141 A 91.001816 94.501852 0 0 0 124.86914 -0.2578125 z M 124.86914 25.34375 A 71.745554 71.745554 0 0 1 192.79297 74.199219 L 56.96875 74.199219 A 71.745554 71.745554 0 0 1 124.86914 25.34375 z M 33.904297 109.0918 L 33.904297 117.87109 L 57.162109 117.87109 L 57.162109 109.0918 L 33.904297 109.0918 z M 192.08594 109.0918 L 192.08594 117.87109 L 215.87109 117.87109 L 215.87109 109.0918 L 192.08594 109.0918 z M 33.904297 131.31445 L 33.904297 140.0957 L 58.521484 140.0957 L 58.521484 153.53906 L 33.904297 153.53906 L 33.904297 251.03516 L 215.87109 251.03516 L 215.87109 153.53906 L 191.32227 153.53906 L 191.32227 140.0957 L 215.87109 140.0957 L 215.87109 131.31445 L 192.08594 131.31445 L 192.08594 131.33008 L 57.162109 131.33008 L 57.162109 131.31445 L 33.904297 131.31445 z M 71.853516 159.60938 L 175.33789 159.60938 A 52.48116 52.48116 0 0 1 176.05859 168.13867 A 52.48116 52.48116 0 0 1 123.57422 220.62109 A 52.48116 52.48116 0 0 1 71.09375 168.13867 A 52.48116 52.48116 0 0 1 71.853516 159.60938 z "
       style="opacity:1;vector-effect:none;fill:#ffffff;fill-opacity:1;stroke:#000000;stroke-width:0;stroke-linecap:butt;stroke-linejoin:miter;stroke-miterlimit:4;stroke-dasharray:none;stroke-dashoffset:0;stroke-opacity:1" />
  </g>
</svg>
