<svg version="1.1" id="Layer_1" xmlns="http://www.w3.org/2000/svg" xmlns:xlink="http://www.w3.org/1999/xlink" x="0px" y="0px"
	 viewBox="0 0 1920 1080" style="enable-background:new 0 0 1920 1080;" xml:space="preserve">
<style type="text/css">
	.st0{fill:#1D00AD;}
</style>
<g>
	<g>
		<path class="st0" d="M952.62,563.58c21.41,21.67,42.7,31.83,63.28,30.2c14.21-1.12,26.11-7.75,34.74-14.47
			c-15.91-5.54-31.66-16.16-47.12-31.79c-18.82-19.05-38.79-28.51-59.45-28.13c-16.36,0.3-30.65,6.64-41.14,13.2
			C920.33,537.39,936.97,547.75,952.62,563.58z"/>
		<path class="st0" d="M1010.17,486.01c-18.38,0.29-34.27,8.34-45.04,15.72c18.46,4.41,36.09,15.02,52.61,31.74
			c14.2,14.36,28.34,23.66,42.25,27.83v-55.83C1044.04,492.28,1027.32,485.74,1010.17,486.01z"/>
		<path class="st0" d="M873.8,529.75c8.93-8.27,31.91-26.67,62.36-29.88c4.04-4.23,33.11-33.11,73.48-33.85
			c17.49-0.3,34.33,4.65,50.35,14.76V392l-190.49,57.67c-16.34,4.95-27.51,20-27.51,37.07v51.16
			C851.3,533.8,862.02,530.61,873.8,529.75z"/>
		<path class="st0" d="M1017.69,613.71c-2.05,0.17-4.11,0.25-6.16,0.25c-24.72,0-49.29-12.19-73.13-36.32
			c-18.78-19-38.71-28.49-59.29-28.14c-14.28,0.23-27.06,5.14-37.1,10.78V604l163.18,62.13c26.46,10.08,54.82-9.47,54.82-37.79v-31
			C1049.26,605.11,1034.94,612.29,1017.69,613.71z"/>
	</g>
</g>
</svg>
