<?xml version="1.0" encoding="utf-8"?>
<!-- Generator: Adobe Illustrator 23.0.1, SVG Export Plug-In . SVG Version: 6.00 Build 0)  -->
<svg version="1.1" id="Layer_1" xmlns="http://www.w3.org/2000/svg" xmlns:xlink="http://www.w3.org/1999/xlink" x="0px" y="0px"
	 viewBox="0 0 168.5 249.6" style="enable-background:new 0 0 168.5 249.6;" xml:space="preserve">
<style type="text/css">
	.st0{fill:#FFFFFF;}
</style>
<title>pop</title>
<path class="st0" d="M67.1,0.5h54.4l0,0v134.6c0,13.5-8.6,24.5-19.1,24.5l0,0H48.1l0,0V24.9C48.1,11.4,56.6,0.5,67.1,0.5z"/>
<path class="st0" d="M30.4,105.4h4.5v79.4H15.1v-64.1C15.1,112.2,21.9,105.4,30.4,105.4z"/>
<path class="st0" d="M133.6,108.3h19.8v63.9c0,8.6-6.9,15.5-15.5,15.5h-4.3V108.3z"/>
<rect x="15.1" y="168" class="st0" width="124.2" height="19.8"/>
<path class="st0" d="M57.3,194.9h54.1v33.6c0,11.3-9.2,20.5-20.5,20.5H57.3V194.9z"/>
</svg>
