<?xml version="1.0" encoding="utf-8"?>
<!-- Generator: Adobe Illustrator 23.0.1, SVG Export Plug-In . SVG Version: 6.00 Build 0)  -->
<svg version="1.1" id="Layer_1" xmlns="http://www.w3.org/2000/svg" xmlns:xlink="http://www.w3.org/1999/xlink" x="0px" y="0px"
	 viewBox="0 0 250 250" style="enable-background:new 0 0 250 250;" xml:space="preserve">
<style type="text/css">
	.st0{fill:#FFFFFF;}
</style>
<path class="st0" d="M228.4,28.9l3-3l16.8-16.8c-0.6-1.1-1.4-2.1-2.3-3c-5.7-5.7-14.8-5.7-20.5,0c-3.3,3.3-4.7,7.9-4.1,12.2
	l-58.9,58.9H25.7c-11.5,0-20.8,9.3-20.8,20.8v131.8h209.4c11.9,0,21.5-9.6,21.5-21.5V77.2H180L228.4,28.9z M61.6,210.1
	c-18.4,0-33.3-14.9-33.3-33.3s14.9-33.3,33.3-33.3S95,158.3,95,176.7S80,210.1,61.6,210.1z M176.1,210.1
	c-18.4,0-33.3-14.9-33.3-33.3s14.9-33.3,33.3-33.3s33.3,14.9,33.3,33.3S194.5,210.1,176.1,210.1z M198.9,105.9
	c5.8,0,10.6,4.7,10.6,10.6v7.6H38.7c-5.7,0-10.4-4.6-10.4-10.4v-7.9H198.9z"/>
</svg>
