<?xml version="1.0" encoding="utf-8"?>
<!-- Generator: Adobe Illustrator 23.0.1, SVG Export Plug-In . SVG Version: 6.00 Build 0)  -->
<svg version="1.1" id="Layer_1" xmlns="http://www.w3.org/2000/svg" xmlns:xlink="http://www.w3.org/1999/xlink" x="0px" y="0px"
	 viewBox="0 0 250 250" style="enable-background:new 0 0 250 250;" xml:space="preserve">
<style type="text/css">
	.st0{fill:#FFFFFF;}
</style>
<path class="st0" d="M202.4,110l0.1-84.3c-0.1-10.2-5-18.5-11-18.4l-6.1,0.2l0.1,102.4H165h-18.5H116V97.4H91.8V110h-8.4V97.4H59.2
	V110h-8.4V97.4H26.7V110h-2.7c-12.1,0-21.9,9.8-21.9,21.9v117.5h178c12.5,0,22.6-10.1,22.6-22.6V110H202.4z M170,158.5V178H35.4
	v-19.5H170z M49.2,233.1c-11.3,0-20.4-9.1-20.4-20.4c0-11.3,9.1-20.4,20.4-20.4s20.4,9.1,20.4,20.3
	C69.7,223.9,60.5,233.1,49.2,233.1z M152.8,232.1c-10.7,0-19.4-8.7-19.4-19.4c0-10.7,8.7-19.4,19.4-19.4s19.4,8.7,19.4,19.4
	C172.2,223.5,163.5,232.1,152.8,232.1z"/>
</svg>
