<?xml version="1.0" encoding="utf-8"?>
<!-- Generator: Adobe Illustrator 23.0.1, SVG Export Plug-In . SVG Version: 6.00 Build 0)  -->
<svg version="1.1" id="Layer_1" xmlns="http://www.w3.org/2000/svg" xmlns:xlink="http://www.w3.org/1999/xlink" x="0px" y="0px"
	 viewBox="0 0 250.4 249.3" style="enable-background:new 0 0 250.4 249.3;" xml:space="preserve">
<style type="text/css">
	.st0{fill:#FFFFFF;}
</style>
<title>rap</title>
<rect x="25.8" y="14.4" class="st0" width="17" height="127.7"/>
<rect x="209.3" y="14.4" class="st0" width="17" height="127.7"/>
<g>
	<rect x="210.3" y="150" class="st0" width="28.5" height="75.6"/>
	<g>
		<path class="st0" d="M202.8,233v-90.9h22.8v-7.6h-41c-8.3,0-15,8.6-15,19.2v95.6h40.9c7.5,0,13.7-7,14.9-16.2H202.8z"/>
	</g>
</g>
<g>
	<rect x="13.6" y="150" class="st0" width="26.2" height="75.6"/>
	<g>
		<path class="st0" d="M26.3,134.4v7.6h21.3V233H26.3v16.2h40.8c8.4,0,15.1-8.7,15.1-19.4v-95.4H26.3z"/>
	</g>
</g>
<path class="st0" d="M214.9,0H37.2c-6.3,0-11.4,5.1-11.4,11.4v2.9h200.5v-2.9C226.3,5.1,221.2,0,214.9,0z"/>
</svg>
