<?xml version="1.0" encoding="utf-8"?>
<!-- Generator: Adobe Illustrator 23.0.1, SVG Export Plug-In . SVG Version: 6.00 Build 0)  -->
<svg version="1.1" id="Layer_1" xmlns="http://www.w3.org/2000/svg" xmlns:xlink="http://www.w3.org/1999/xlink" x="0px" y="0px"
	 viewBox="0 0 213.2 250" style="enable-background:new 0 0 213.2 250;" xml:space="preserve">
<style type="text/css">
	.st0{fill:#FFFFFF;}
</style>
<title>devil_hand</title>
<g>
	<path class="st0" d="M60.7,194.1h32V2.5H73.2c-6.9,0-12.5,6.1-12.5,13.6C60.7,16.1,60.7,194.1,60.7,194.1z"/>
</g>
<g>
	<path class="st0" d="M97.7,199.7h32V110h-19.5c-6.9,0-12.5,4.6-12.5,10.3V199.7z"/>
</g>
<g>
	<path class="st0" d="M134.6,199.7h32v-79c0-5.9-5.8-10.7-13-10.7h-6.5c-6.9,0-12.5,4.6-12.5,10.3V199.7z"/>
</g>
<g>
	<path class="st0" d="M171.6,187.6h32V2.5h-19.5c-6.9,0-12.5,5.6-12.5,12.5V187.6z"/>
</g>
<path class="st0" d="M82.4,250c-12.2-16.1-27.2-42.4-37.9-57.1l-9-12.7l168.1,3v46.2c0,11.4-9.2,20.6-20.6,20.6H82.4z"/>
<rect x="63.9" y="139.5" class="st0" width="139.1" height="48.4"/>
<path class="st0" d="M82.4,186.5l-28.1,20L4.4,138.4c-6.2-8.5-5.8-19.4,0.9-24.3l17.6-10.9L82.4,186.5z"/>
</svg>
