<?xml version="1.0" encoding="utf-8"?>
<!-- Generator: Adobe Illustrator 23.0.1, SVG Export Plug-In . SVG Version: 6.00 Build 0)  -->
<svg version="1.1" id="Layer_1" xmlns="http://www.w3.org/2000/svg" xmlns:xlink="http://www.w3.org/1999/xlink" x="0px" y="0px"
	 viewBox="0 0 250 250" style="enable-background:new 0 0 250 250;" xml:space="preserve">
<style type="text/css">
	.st0{fill:#FFFFFF;}
</style>
<path class="st0" d="M226.5,207.9l-71.1-71.1c8.5-12.2,13.5-26.9,13.5-42.9c0-41.4-33.6-74.9-74.9-74.9S19,52.5,19,93.9
	s33.6,74.9,74.9,74.9c6.7,0,13.2-0.9,19.3-2.5l0,0l-0.1,0.1c0.1,0,0.2-0.1,0.3-0.2c1.9-0.5,3.9-1.1,5.7-1.8c5.3-1,13.6-0.8,22.7,5.7
	l75.6,75.6l8.9-8.9C234.5,228.8,234.5,215.9,226.5,207.9z M43,93.9C43,65.8,65.8,43,93.9,43s50.9,22.8,50.9,50.9
	s-22.8,50.9-50.9,50.9S43,122,43,93.9z"/>
</svg>
