<?xml version="1.0" encoding="utf-8"?>
<!-- Generator: Adobe Illustrator 23.0.1, SVG Export Plug-In . SVG Version: 6.00 Build 0)  -->
<svg version="1.1" id="wave" xmlns="http://www.w3.org/2000/svg" xmlns:xlink="http://www.w3.org/1999/xlink" x="0px" y="0px"
	 viewBox="0 0 1656.4 459.7" style="enable-background:new 0 0 1656.4 459.7;" xml:space="preserve">
<style type="text/css">
	.st0{fill:#389BFD;}
</style>
<title>wave</title>
<title>wave</title>
<path class="st0" d="M1656.4,132.4c-0.4,0-0.9,0.1-1.3,0.1c-2.5,0.5-5.2,0.9-8.1,1.2c-33.6,3.8-66.1,5.6-96.5,6.2
	c-72.4,2.6-136.8-0.6-193.3-7.1c-3.5,0.1-6.4,0.3-8.7,0.6c-29,4.6-261.3-44.1-368.1-75.5c-15.6-4.6-33.7-8.3-53.2-11.3
	C870,39.7,811.6,35.7,752.6,34.7c-161.1-2.8-328,16.4-495.9,57c-93.4,22.5-179,36.1-256.7,43.1V436c105.8-8,215.3-25.7,327.2-52.7
	c253.1-61.2,493.5-65.3,714.5-12.1c165,39.8,257.1,98.5,258,99.1c-0.6-0.4-0.9-0.6-0.9-0.6l25.7-38.5c46.2,5.3,93.5,8.5,141.8,9.6
	c61.8,1.3,125.3-1,190.1-6.8V132.4z"/>
</svg>
